<svg xmlns="http://www.w3.org/2000/svg" width="25" height="25" viewBox="0 0 25 25" fill="none">
  <g clip-path="url(#clip0_614_849)">
    <path d="M20.833 4.16667H4.16634C3.02051 4.16667 2.08301 5.10417 2.08301 6.25V18.75C2.08301 19.8958 3.02051 20.8333 4.16634 20.8333H20.833C21.9788 20.8333 22.9163 19.8958 22.9163 18.75V6.25C22.9163 5.10417 21.9788 4.16667 20.833 4.16667ZM20.833 18.75H4.16634V6.25H20.833V18.75ZM4.16634 0H20.833V2.08333H4.16634M4.16634 22.9167H20.833V25H4.16634M12.4997 12.5C13.1903 12.5 13.8527 12.2256 14.3411 11.7373C14.8295 11.2489 15.1038 10.5865 15.1038 9.89583C15.1038 9.20517 14.8295 8.54279 14.3411 8.05441C13.8527 7.56603 13.1903 7.29167 12.4997 7.29167C11.809 7.29167 11.1466 7.56603 10.6583 8.05441C10.1699 8.54279 9.89551 9.20517 9.89551 9.89583C9.89551 10.5865 10.1699 11.2489 10.6583 11.7373C11.1466 12.2256 11.809 12.5 12.4997 12.5ZM12.4997 8.85417C13.0726 8.85417 13.5413 9.32292 13.5413 9.89583C13.5413 10.4687 13.0726 10.9375 12.4997 10.9375C11.9268 10.9375 11.458 10.4687 11.458 9.89583C11.458 9.32292 11.9268 8.85417 12.4997 8.85417ZM17.708 16.6667C17.708 14.4792 14.2601 13.5417 12.4997 13.5417C10.7393 13.5417 7.29134 14.4792 7.29134 16.6667V17.7083H17.708V16.6667ZM9.17676 16.1458C9.81217 15.625 11.2913 15.1042 12.4997 15.1042C13.7184 15.1042 15.1976 15.625 15.833 16.1458H9.17676Z" fill="#DCDCDC"/>
  </g>
  <defs>
    <clipPath id="clip0_614_849">
      <rect width="25" height="25" fill="white"/>
    </clipPath>
  </defs>
</svg>