<svg xmlns="http://www.w3.org/2000/svg" width="24" height="15" viewBox="0 0 24 15" fill="none">
  <path d="M21.875 0H1.5625C1.1481 0 0.750671 0.16462 0.457646 0.457646C0.16462 0.750671 0 1.1481 0 1.5625V12.5C0 12.9144 0.16462 13.3118 0.457646 13.6049C0.750671 13.8979 1.1481 14.0625 1.5625 14.0625H21.875C22.2894 14.0625 22.6868 13.8979 22.9799 13.6049C23.2729 13.3118 23.4375 12.9144 23.4375 12.5V1.5625C23.4375 1.1481 23.2729 0.750671 22.9799 0.457646C22.6868 0.16462 22.2894 0 21.875 0ZM21.875 12.5H1.5625V1.5625H21.875V12.5ZM11.7188 4.6875V6.25H12.5C12.7072 6.25 12.9059 6.33231 13.0524 6.47882C13.1989 6.62534 13.2812 6.82405 13.2812 7.03125C13.2812 7.23845 13.1989 7.43716 13.0524 7.58368C12.9059 7.73019 12.7072 7.8125 12.5 7.8125H11.7188V9.375H13.2812C13.4885 9.375 13.6872 9.45731 13.8337 9.60382C13.9802 9.75034 14.0625 9.94905 14.0625 10.1562C14.0625 10.3635 13.9802 10.5622 13.8337 10.7087C13.6872 10.8552 13.4885 10.9375 13.2812 10.9375H10.9375C10.7303 10.9375 10.5316 10.8552 10.3851 10.7087C10.2386 10.5622 10.1562 10.3635 10.1562 10.1562V3.90625C10.1562 3.69905 10.2386 3.50034 10.3851 3.35382C10.5316 3.20731 10.7303 3.125 10.9375 3.125H13.2812C13.4885 3.125 13.6872 3.20731 13.8337 3.35382C13.9802 3.50034 14.0625 3.69905 14.0625 3.90625C14.0625 4.11345 13.9802 4.31216 13.8337 4.45868C13.6872 4.60519 13.4885 4.6875 13.2812 4.6875H11.7188ZM20.2832 4.11816L18.5254 10.3682C18.4792 10.532 18.3808 10.6763 18.245 10.7791C18.1093 10.8819 17.9437 10.9375 17.7734 10.9375C17.6032 10.9375 17.4376 10.8819 17.3019 10.7791C17.1661 10.6763 17.0677 10.532 17.0215 10.3682L15.2637 4.11816C15.2084 3.91904 15.2344 3.70615 15.3357 3.52609C15.4371 3.34602 15.6057 3.21346 15.8046 3.15741C16.0035 3.10136 16.2165 3.12639 16.397 3.22701C16.5774 3.32764 16.7107 3.49568 16.7676 3.69434L17.7734 7.27051L18.7793 3.69434C18.8068 3.59521 18.8536 3.50249 18.917 3.4215C18.9804 3.3405 19.0592 3.27283 19.1488 3.22236C19.2385 3.1719 19.3372 3.13963 19.4393 3.12741C19.5415 3.1152 19.645 3.12327 19.744 3.15117C19.8431 3.17908 19.9356 3.22626 20.0163 3.29001C20.097 3.35376 20.1644 3.43283 20.2145 3.52268C20.2646 3.61252 20.2964 3.71138 20.3082 3.81357C20.32 3.91576 20.3115 4.01927 20.2832 4.11816ZM5.46875 3.125H4.6875C4.4803 3.125 4.28159 3.20731 4.13507 3.35382C3.98856 3.50034 3.90625 3.69905 3.90625 3.90625V10.1562C3.90625 10.3635 3.98856 10.5622 4.13507 10.7087C4.28159 10.8552 4.4803 10.9375 4.6875 10.9375H5.46875C6.29755 10.9375 7.09241 10.6083 7.67846 10.0222C8.26451 9.43616 8.59375 8.6413 8.59375 7.8125V6.25C8.59375 5.4212 8.26451 4.62634 7.67846 4.04029C7.09241 3.45424 6.29755 3.125 5.46875 3.125ZM7.03125 7.8125C7.03125 8.2269 6.86663 8.62433 6.5736 8.91735C6.28058 9.21038 5.88315 9.375 5.46875 9.375V4.6875C5.88315 4.6875 6.28058 4.85212 6.5736 5.14515C6.86663 5.43817 7.03125 5.8356 7.03125 6.25V7.8125Z" fill="#DCDCDC"/>
</svg>