<svg xmlns="http://www.w3.org/2000/svg" width="25" height="25" viewBox="0 0 25 25" fill="none">
  <path d="M12.4999 2.08337H9.02806C8.10712 2.08337 7.22391 2.44921 6.57271 3.10042C5.92151 3.75162 5.55566 4.63483 5.55566 5.55577C5.55566 6.47671 5.92151 7.35992 6.57271 8.01112C7.22391 8.66232 8.10712 9.02817 9.02806 9.02817H12.4999V2.08337Z" stroke="#DCDCDC" stroke-width="1.5625"/>
  <path d="M12.4999 9.0271H9.02806C8.10712 9.0271 7.22391 9.39294 6.57271 10.0441C5.92151 10.6953 5.55566 11.5786 5.55566 12.4995C5.55566 13.4204 5.92151 14.3036 6.57271 14.9548C7.22391 15.6061 8.10712 15.9719 9.02806 15.9719H12.4999V9.0271Z" stroke="#DCDCDC" stroke-width="1.5625"/>
  <path d="M19.4452 12.5C19.4452 13.4209 19.0793 14.3041 18.4281 14.9553C17.7769 15.6065 16.8937 15.9724 15.9728 15.9724C15.0519 15.9724 14.1686 15.6065 13.5174 14.9553C12.8662 14.3041 12.5004 13.4209 12.5004 12.5C12.5004 11.579 12.8662 10.6958 13.5174 10.0446C14.1686 9.39343 15.0519 9.02759 15.9728 9.02759C16.8937 9.02759 17.7769 9.39343 18.4281 10.0446C19.0793 10.6958 19.4452 11.579 19.4452 12.5ZM9.02852 15.9729H12.5004V19.4448C12.5002 20.1314 12.2964 20.8026 11.9148 21.3734C11.5331 21.9442 10.9908 22.389 10.3564 22.6516C9.722 22.9142 9.02396 22.9829 8.35055 22.8488C7.67714 22.7147 7.05861 22.3839 6.57316 21.8984C6.08772 21.4128 5.75716 20.7941 5.62328 20.1207C5.4894 19.4472 5.55821 18.7492 5.82102 18.1149C6.08383 17.4805 6.52883 16.9384 7.09975 16.5569C7.67068 16.1755 8.34189 15.9729 9.02852 15.9729Z" stroke="#DCDCDC" stroke-width="1.5625"/>
  <path d="M12.5 2.08337H15.9719C16.8928 2.08337 17.776 2.44921 18.4272 3.10042C19.0784 3.75162 19.4443 4.63483 19.4443 5.55577C19.4443 6.47671 19.0784 7.35992 18.4272 8.01112C17.776 8.66232 16.8928 9.02817 15.9719 9.02817H12.5V2.08337Z" stroke="#DCDCDC" stroke-width="1.5625"/>
</svg>