<svg xmlns="http://www.w3.org/2000/svg" width="25" height="25" viewBox="0 0 25 25" fill="none">
    <path d="M12.1487 5.11722L14.1018 3.1641C14.6097 2.65625 15.2126 2.25341 15.8761 1.97856C16.5397 1.70372 17.2508 1.56226 17.969 1.56226C18.6872 1.56226 19.3984 1.70372 20.0619 1.97856C20.7255 2.25341 21.3284 2.65625 21.8362 3.1641C22.3441 3.67194 22.7469 4.27484 23.0218 4.93838C23.2966 5.60191 23.4381 6.31308 23.4381 7.03128C23.4381 7.74949 23.2966 8.46066 23.0218 9.12419C22.7469 9.78773 22.3441 10.3906 21.8362 10.8985L17.93 14.8047C17.4221 15.3126 16.8192 15.7155 16.1557 15.9903C15.4922 16.2652 14.781 16.4067 14.0628 16.4067C13.3446 16.4067 12.6334 16.2652 11.9698 15.9903C11.3063 15.7155 10.7034 15.3126 10.1956 14.8047C9.9887 14.5824 9.87604 14.2886 9.88129 13.985C9.88653 13.6814 10.0093 13.3916 10.2237 13.1766C10.4387 12.9622 10.7285 12.8394 11.0321 12.8342C11.3357 12.8289 11.6296 12.9416 11.8518 13.1485C12.1419 13.4394 12.4864 13.6702 12.8658 13.8277C13.2452 13.9852 13.652 14.0663 14.0628 14.0663C14.4736 14.0663 14.8803 13.9852 15.2597 13.8277C15.6391 13.6702 15.9837 13.4394 16.2737 13.1485L20.18 9.24222C20.7378 8.65012 21.0431 7.86398 21.0309 7.05057C21.0188 6.23716 20.6903 5.46046 20.1151 4.88523C19.5398 4.31 18.7632 3.98149 17.9497 3.96937C17.1363 3.95726 16.3502 4.2625 15.7581 4.82035L13.805 6.77347C13.5827 6.98036 13.2889 7.09302 12.9852 7.08778C12.6816 7.08253 12.3918 6.95979 12.1768 6.74535C11.9624 6.53034 11.8397 6.24058 11.8344 5.93696C11.8292 5.63334 11.9418 5.33951 12.1487 5.11722ZM4.82059 20.1797C5.11061 20.4706 5.45519 20.7015 5.83459 20.859C6.21399 21.0165 6.62074 21.0975 7.03153 21.0975C7.44232 21.0975 7.84907 21.0165 8.22847 20.859C8.60786 20.7015 8.95245 20.4706 9.24247 20.1797L11.1956 18.2266C11.4179 18.0197 11.7117 17.907 12.0153 17.9123C12.3189 17.9175 12.6087 18.0403 12.8237 18.2547C13.0382 18.4697 13.1609 18.7595 13.1661 19.0631C13.1714 19.3667 13.0587 19.6606 12.8518 19.8828L10.8987 21.836C10.3909 22.3438 9.78797 22.7467 9.12444 23.0215C8.4609 23.2964 7.74973 23.4378 7.03153 23.4378C5.58105 23.4378 4.18998 22.8616 3.16434 21.836C2.1387 20.8103 1.5625 19.4193 1.5625 17.9688C1.5625 16.5183 2.1387 15.1272 3.16434 14.1016L7.07059 10.1953C7.57842 9.68747 8.18131 9.28459 8.84485 9.00973C9.50839 8.73486 10.2196 8.59339 10.9378 8.59339C11.656 8.59339 12.3672 8.73486 13.0307 9.00973C13.6942 9.28459 14.2971 9.68747 14.805 10.1953C15.0119 10.4176 15.1245 10.7115 15.1193 11.0151C15.114 11.3187 14.9913 11.6085 14.7768 11.8235C14.5618 12.0379 14.2721 12.1607 13.9685 12.1659C13.6648 12.1711 13.371 12.0585 13.1487 11.8516C12.8587 11.5607 12.5141 11.3298 12.1347 11.1723C11.7553 11.0149 11.3486 10.9338 10.9378 10.9338C10.527 10.9338 10.1202 11.0149 9.74084 11.1723C9.36144 11.3298 9.01686 11.5607 8.72684 11.8516L4.82059 15.7578C4.52967 16.0479 4.29884 16.3924 4.14134 16.7718C3.98384 17.1512 3.90277 17.558 3.90277 17.9688C3.90277 18.3796 3.98384 18.7863 4.14134 19.1657C4.29884 19.5451 4.52967 19.8897 4.82059 20.1797Z" fill="#DCDCDC"/>
  </svg>