<svg xmlns="http://www.w3.org/2000/svg" width="25" height="25" viewBox="0 0 25 25" fill="none">
  <g clip-path="url(#clip0_614_851)">
    <path fill-rule="evenodd" clip-rule="evenodd" d="M14.8438 22.6562L5.46875 18.75V6.25L14.8438 2.34375V22.6562ZM4.08594 20.7125C3.80132 20.5938 3.5582 20.3935 3.3872 20.1368C3.21621 19.8802 3.12497 19.5787 3.125 19.2703V5.72968C3.12497 5.4213 3.21621 5.1198 3.3872 4.86316C3.5582 4.60652 3.80132 4.40622 4.08594 4.2875L13.9422 0.179683C14.2984 0.0312352 14.6858 -0.0269551 15.0699 0.010279C15.454 0.0475131 15.823 0.179019 16.144 0.393121C16.4651 0.607223 16.7284 0.897294 16.9104 1.23758C17.0924 1.57786 17.1876 1.95783 17.1875 2.34375V3.125H19.1406C20.65 3.125 21.875 4.34843 21.875 5.85937V19.1406C21.875 19.8658 21.5869 20.5613 21.0741 21.0741C20.5613 21.5869 19.8658 21.875 19.1406 21.875H17.1875V22.6562C17.1876 23.0422 17.0924 23.4221 16.9104 23.7624C16.7284 24.1027 16.4651 24.3928 16.144 24.6069C15.823 24.821 15.454 24.9525 15.0699 24.9897C14.6858 25.0269 14.2984 24.9688 13.9422 24.8203L4.08594 20.7125ZM17.1875 19.5312H19.1406C19.2442 19.5312 19.3436 19.4901 19.4168 19.4168C19.4901 19.3436 19.5312 19.2442 19.5312 19.1406V5.85937C19.5312 5.75577 19.4901 5.65641 19.4168 5.58316C19.3436 5.5099 19.2442 5.46875 19.1406 5.46875H17.1875V19.5312Z" fill="#DCDCDC"/>
  </g>
  <defs>
    <clipPath id="clip0_614_851">
      <rect width="25" height="25" fill="white"/>
    </clipPath>
  </defs>
</svg>