<svg xmlns="http://www.w3.org/2000/svg" width="25" height="25" viewBox="0 0 25 25" fill="none">
  <g clip-path="url(#clip0_619_847)">
    <mask id="mask0_619_847" style="mask-type:luminance" maskUnits="userSpaceOnUse" x="0" y="0" width="25" height="25">
      <path d="M0 0H25V25H0V0Z" fill="white"/>
    </mask>
    <g mask="url(#mask0_619_847)">
      <path d="M25 12.176C25 10.5198 22.926 8.94996 19.7458 7.97704C20.4802 4.73642 20.1542 2.15725 18.7167 1.33121C18.3683 1.13613 17.9741 1.03793 17.575 1.04683V2.18225C17.8094 2.18225 17.9979 2.22913 18.1562 2.31558C18.849 2.7135 19.15 4.226 18.9156 6.17288C18.8594 6.65204 18.7677 7.15621 18.6552 7.67079C17.5902 7.41416 16.5094 7.22868 15.4198 7.11558C14.7707 6.22005 14.0625 5.36885 13.3 4.56767C14.9615 3.02392 16.5208 2.17808 17.5812 2.17808V1.04163C16.1792 1.04163 14.3448 2.04058 12.4896 3.77288C10.6354 2.05204 8.8 1.06246 7.39896 1.06246V2.19788C8.45417 2.19788 10.0188 3.03954 11.6802 4.57288C10.9667 5.32288 10.2531 6.17288 9.575 7.11558C8.48316 7.22743 7.40037 7.41468 6.33437 7.676C6.22172 7.18828 6.13307 6.69533 6.06875 6.19892C5.82917 4.251 6.125 2.7385 6.81354 2.33642C6.96562 2.24475 7.16458 2.20308 7.39896 2.20308V1.06767C6.97187 1.06767 6.58333 1.15933 6.24792 1.35204C4.81563 2.17808 4.49479 4.751 5.23333 7.98225C2.06354 8.96142 0 10.525 0 12.176C0 13.8323 2.07396 15.402 5.25417 16.3739C4.51979 19.6156 4.84583 22.1948 6.28333 23.0198C6.61458 23.2135 7.00208 23.3052 7.42917 23.3052C8.83125 23.3052 10.6656 22.3062 12.5208 20.5739C14.375 22.2958 16.2094 23.2843 17.6115 23.2843C18.0136 23.2928 18.4109 23.1943 18.7625 22.9989C20.1948 22.1739 20.5156 19.601 19.7771 16.3698C22.9365 15.3968 25 13.827 25 12.176ZM18.3646 8.77704C18.1666 9.45814 17.9372 10.1297 17.6771 10.7895C17.2512 9.96116 16.7836 9.15492 16.276 8.37392C17 8.48121 17.6979 8.6135 18.3656 8.77704H18.3646ZM16.0312 14.2041C15.6497 14.8702 15.24 15.5198 14.8031 16.151C13.2742 16.2858 11.7365 16.2875 10.2073 16.1562C9.33015 14.9033 8.56306 13.5768 7.91458 12.1916C8.56207 10.8032 9.3259 9.47205 10.1979 8.21246C11.7264 8.07743 13.2638 8.07534 14.7927 8.20621C15.2156 8.81246 15.6292 9.46038 16.026 10.1437C16.4135 10.8104 16.7656 11.4875 17.0865 12.1708C16.7621 12.8624 16.41 13.5407 16.0312 14.2041ZM17.6771 13.5416C17.9521 14.2239 18.1875 14.9073 18.3802 15.5697C17.7135 15.7333 17.0094 15.8708 16.2812 15.977C16.7867 15.1889 17.2526 14.3761 17.6771 13.5416ZM12.5104 18.9791C12.0365 18.4895 11.5625 17.9447 11.0937 17.3479C11.5521 17.3687 12.0208 17.3843 12.4948 17.3843C12.974 17.3843 13.4479 17.3739 13.9115 17.3479C13.4531 17.9447 12.9792 18.4895 12.5104 18.9791ZM8.71875 15.977C8.0164 15.8753 7.31913 15.7411 6.62917 15.575C6.81771 14.9177 7.05208 14.2395 7.31667 13.5625C7.52604 13.9687 7.74583 14.377 7.98542 14.7854C8.225 15.1927 8.46875 15.5906 8.71875 15.977ZM12.4844 5.37288C12.9583 5.86246 13.4323 6.40725 13.901 7.00413C13.4427 6.98329 12.974 6.96767 12.5 6.96767C12.0208 6.96767 11.5469 6.97808 11.0833 7.00413C11.5417 6.40725 12.0156 5.86246 12.4844 5.37288ZM8.71354 8.37496C8.2082 9.16135 7.74234 9.97242 7.31771 10.8052C7.05022 10.1411 6.81556 9.4642 6.61458 8.77704C7.28125 8.61871 7.98542 8.48121 8.71354 8.37496ZM4.10208 14.7541C2.29792 13.9854 1.13125 12.976 1.13125 12.176C1.13125 11.376 2.29792 10.3614 4.10208 9.59788C4.53958 9.40933 5.01875 9.24058 5.51354 9.08329C5.80417 10.0812 6.18646 11.1208 6.65937 12.1864C6.21288 13.1887 5.83527 14.2203 5.52917 15.2739C5.04526 15.1241 4.56899 14.9506 4.10208 14.7541ZM6.84375 22.0354C6.15104 21.6395 5.85 20.125 6.08437 18.1791C6.14062 17.7 6.23229 17.1948 6.34479 16.6802C7.34271 16.925 8.43333 17.1135 9.58021 17.2364C10.2293 18.1319 10.9375 18.9831 11.7 19.7843C10.0385 21.3281 8.47917 22.1739 7.41875 22.1739C7.21869 22.1761 7.02118 22.1289 6.84375 22.0364V22.0354ZM18.9312 18.1531C19.1708 20.1 18.875 21.6135 18.1865 22.0156C18.0344 22.1073 17.8354 22.1479 17.601 22.1479C16.5458 22.1479 14.9812 21.3073 13.3198 19.7729C14.0791 18.975 14.7825 18.1258 15.425 17.2312C16.5168 17.1194 17.5996 16.9321 18.6656 16.6708C18.7833 17.1854 18.874 17.6791 18.9312 18.1531ZM20.8927 14.7541C20.4552 14.9427 19.976 15.1114 19.4812 15.2687C19.1698 14.2097 18.7869 13.1729 18.3354 12.1656C18.8042 11.1062 19.1802 10.0718 19.4656 9.07808C19.9511 9.22841 20.429 9.40188 20.8979 9.59788C22.7021 10.3666 23.8687 11.376 23.8687 12.176C23.8635 12.976 22.6969 13.9906 20.8927 14.7541Z" fill="#DCDCDC"/>
      <path d="M12.4952 14.5051C13.1129 14.5051 13.7053 14.2597 14.1422 13.8229C14.579 13.3861 14.8243 12.7937 14.8243 12.176C14.8243 11.5582 14.579 10.9658 14.1422 10.529C13.7053 10.0922 13.1129 9.8468 12.4952 9.8468C11.8774 9.8468 11.285 10.0922 10.8482 10.529C10.4114 10.9658 10.166 11.5582 10.166 12.176C10.166 12.7937 10.4114 13.3861 10.8482 13.8229C11.285 14.2597 11.8774 14.5051 12.4952 14.5051Z" fill="#DCDCDC"/>
    </g>
  </g>
  <defs>
    <clipPath id="clip0_619_847">
      <rect width="25" height="25" fill="white"/>
    </clipPath>
  </defs>
</svg>