<svg xmlns="http://www.w3.org/2000/svg" width="25" height="25" viewBox="0 0 25 25" fill="none">
  <path d="M12.6341 14.6094C12.2583 14.782 11.8466 15.007 11.0223 15.4594C10.7098 15.6351 10.3833 15.8109 10.0794 15.9765C10.0583 15.9554 10.0364 15.9289 10.0153 15.907C8.38484 14.1648 5.36922 12.9344 5.49734 10.5945C5.545 9.74217 5.83797 7.50467 11.2887 4.78748C15.7747 2.57654 19.3442 3.18904 19.9606 4.54764C20.8466 6.48435 18.0473 10.0883 13.4145 10.6109C12.9018 10.7149 12.3722 10.7024 11.865 10.5742C11.3578 10.446 10.8858 10.2054 10.4841 9.87029C10.2387 9.60389 10.202 9.58826 10.1114 9.64139C9.96219 9.71951 10.0583 9.96092 10.1114 10.0992C10.2881 10.4192 10.5272 10.7004 10.8145 10.9264C11.1018 11.1524 11.4315 11.3185 11.7841 11.4148C13.6072 11.8089 15.508 11.6206 17.2184 10.8765C20.0262 9.78982 22.2184 6.76873 21.5762 4.23592C20.9317 1.66795 16.6692 0.821074 12.6364 2.25389C10.1108 3.10497 7.77744 4.44475 5.76922 6.19686C3.54734 8.27498 3.19578 10.0812 3.33953 10.8375C3.85672 13.5226 7.55828 15.2703 9.04265 16.5648C8.96453 16.6078 8.8989 16.6429 8.84031 16.6765C8.09968 17.0445 5.27625 18.5203 4.57234 20.0812C3.77312 21.85 4.70047 23.1179 5.31297 23.2883C6.236 23.5094 7.20505 23.4367 8.08478 23.0804C8.9645 22.724 9.71099 22.1019 10.22 21.3008C10.6522 20.6364 10.9177 19.8776 10.9937 19.0887C11.0697 18.2998 10.9541 17.5042 10.6567 16.7695C10.8322 16.6295 11.0193 16.5049 11.2161 16.3969C11.5942 16.1734 11.9544 15.9531 12.2739 15.7828C13.368 15.2703 14.5619 15.0065 15.77 15.0101C18.3059 15.3086 18.8067 16.8906 18.7106 17.557C18.6657 17.7934 18.5706 18.0175 18.4318 18.2141C18.293 18.4107 18.1137 18.5753 17.9059 18.6969C17.7302 18.8086 17.6716 18.8461 17.6872 18.9258C17.7083 19.0429 17.7934 19.0375 17.9427 19.0164C18.3237 18.896 18.6593 18.6631 18.9056 18.3484C19.1518 18.0337 19.2971 17.6519 19.3223 17.2531C19.4005 15.6906 17.9106 13.9765 15.2731 13.9922C14.4834 13.9935 13.7015 14.1493 12.9716 14.4508C12.8544 14.4992 12.7406 14.5513 12.6302 14.607L12.6341 14.6094ZM8.86453 20.7336C8.02234 21.65 6.85047 21.9961 6.34422 21.7031C5.79734 21.3906 6.01375 20.0351 7.04734 19.0656C7.6595 18.514 8.32115 18.02 9.0239 17.5898C9.14656 17.5117 9.32781 17.4086 9.54578 17.2773L9.60437 17.2453L9.7325 17.1672C9.91684 17.7852 9.93361 18.4412 9.7811 19.0678C9.62859 19.6945 9.31227 20.2694 8.86453 20.7336Z" fill="#DCDCDC"/>
</svg>