<svg xmlns="http://www.w3.org/2000/svg" width="25" height="25" viewBox="0 0 25 25" fill="none">
  <g clip-path="url(#clip0_619_867)">
    <path d="M4.42708 0.3125C1.97917 0.3125 0 2.29167 0 4.73958V20.2604C0 22.7083 1.97917 24.6875 4.42708 24.6875H20.5729C23.0208 24.6875 25 22.7083 25 20.2604V4.73958C25 2.29167 23.0208 0.3125 20.5729 0.3125H4.42708ZM19.0833 5.65625H21.1979C21.25 5.64583 21.2917 5.6875 21.3021 5.72917V15.6667C21.3021 15.8542 21.3125 16.0625 21.3229 16.2917C21.3437 16.5104 21.3542 16.7187 21.3646 16.8958C21.3646 16.9687 21.3333 17.0312 21.2604 17.0625C20.7188 17.2917 20.1458 17.4583 19.5625 17.5625C19.0312 17.6562 18.5 17.7083 17.9583 17.7083C17.1875 17.7188 16.4167 17.5625 15.7188 17.2396C15.0625 16.9375 14.5208 16.4375 14.1458 15.8229C13.7604 15.1875 13.5729 14.3958 13.5729 13.4479C13.5626 12.6698 13.7647 11.9036 14.1575 11.2318C14.5503 10.56 15.1189 10.0081 15.8021 9.63542C16.5312 9.22917 17.4062 9.03125 18.4375 9.03125C18.4896 9.03125 18.5625 9.03125 18.6562 9.04167C18.75 9.05208 18.8542 9.05208 18.9792 9.0625V5.77083C18.9792 5.69792 19.0104 5.65625 19.0833 5.65625ZM3.83333 6.5625H6.19792C6.25 6.5625 6.30208 6.57292 6.34375 6.58333C6.38542 6.60417 6.41667 6.63542 6.44792 6.67708C6.64583 7.125 6.875 7.57292 7.11458 8.02083C7.36458 8.46875 7.60417 8.90625 7.86458 9.34375C8.11458 9.78125 8.34375 10.2187 8.5625 10.6667H8.58333C8.80208 10.2083 9.03125 9.76042 9.26042 9.32292C9.48958 8.88542 9.72917 8.44792 9.96875 8.01042C10.2083 7.57292 10.4375 7.125 10.6667 6.69792C10.6771 6.65625 10.6979 6.61458 10.7292 6.59375C10.7704 6.5709 10.8184 6.56352 10.8646 6.57292H13.0625C13.1146 6.5625 13.1667 6.59375 13.1771 6.64583C13.1875 6.65625 13.1667 6.69792 13.1458 6.71875L10.0208 11.875L13.3542 17.3438C13.375 17.3854 13.3854 17.4271 13.375 17.4688C13.3646 17.5104 13.3229 17.4792 13.2604 17.4896H10.875C10.7083 17.4896 10.5938 17.4792 10.5208 17.375C10.3021 16.9375 10.0729 16.5104 9.85417 16.0729C9.63542 15.6458 9.39583 15.2083 9.14583 14.7604C8.89583 14.3125 8.64583 13.8646 8.39583 13.4062H8.375C8.15625 13.8542 7.91667 14.3021 7.67708 14.75C7.4375 15.1979 7.19792 15.6458 6.96875 16.0833C6.72917 16.5208 6.48958 16.9688 6.25 17.3958C6.20833 17.5 6.125 17.5104 6.01042 17.5104H3.71875C3.67708 17.5104 3.64583 17.5312 3.64583 17.4792C3.64125 17.4597 3.64073 17.4394 3.64432 17.4197C3.6479 17.4 3.65551 17.3812 3.66667 17.3646L6.90625 12.0521L3.75 6.70833C3.71875 6.66667 3.70833 6.625 3.72917 6.60417C3.75 6.57292 3.79167 6.5625 3.83333 6.5625ZM18.3542 10.9687C17.9479 10.9687 17.5417 11.0521 17.1771 11.2396C16.8229 11.4167 16.5208 11.6771 16.2917 12.0104C16.0625 12.3437 15.9479 12.7917 15.9479 13.3333C15.9375 13.6979 16 14.0625 16.125 14.4062C16.2292 14.6875 16.3854 14.9375 16.5938 15.1458C16.7917 15.3333 17.0312 15.4792 17.3021 15.5625C17.5833 15.6562 17.875 15.6979 18.1667 15.6979C18.3229 15.6979 18.4688 15.6875 18.6042 15.6771C18.7396 15.6875 18.8542 15.6667 18.9792 15.625V11.0417C18.7744 10.9928 18.5646 10.9683 18.3542 10.9687Z" fill="#DCDCDC"/>
  </g>
  <defs>
    <clipPath id="clip0_619_867">
      <rect width="25" height="25" fill="white"/>
    </clipPath>
  </defs>
</svg>